<svg width="85" height="85" viewBox="0 0 85 85" fill="none" xmlns="http://www.w3.org/2000/svg">
<g filter="url(#filter0_d_50138_302)">
<path d="M20 24C20 16.268 26.268 10 34 10H51C58.732 10 65 16.268 65 24V41C65 48.732 58.732 55 51 55H34C26.268 55 20 48.732 20 41V24Z" fill="url(#paint0_linear_50138_302)" shape-rendering="crispEdges"/>
</g>
<path d="M42.2144 37.3926H36.2812" stroke="white" stroke-width="1.5" stroke-linecap="round" stroke-linejoin="round"/>
<path fill-rule="evenodd" clip-rule="evenodd" d="M45.9375 37.3934C45.9375 39.2651 46.5617 39.8884 48.4325 39.8884C50.3033 39.8884 50.9274 39.2651 50.9274 37.3934C50.9274 35.5218 50.3033 34.8984 48.4325 34.8984C46.5617 34.8984 45.9375 35.5218 45.9375 37.3934Z" stroke="white" stroke-width="1.5" stroke-linecap="round" stroke-linejoin="round"/>
<path d="M44.9951 27.778H50.9274" stroke="white" stroke-width="1.5" stroke-linecap="round" stroke-linejoin="round"/>
<path fill-rule="evenodd" clip-rule="evenodd" d="M41.272 27.7768C41.272 25.906 40.6479 25.2818 38.777 25.2818C36.9054 25.2818 36.2812 25.906 36.2812 27.7768C36.2812 29.6484 36.9054 30.2717 38.777 30.2717C40.6479 30.2717 41.272 29.6484 41.272 27.7768Z" stroke="white" stroke-width="1.5" stroke-linecap="round" stroke-linejoin="round"/>
<defs>
<filter id="filter0_d_50138_302" x="0" y="0" width="85" height="85" filterUnits="userSpaceOnUse" color-interpolation-filters="sRGB">
<feFlood flood-opacity="0" result="BackgroundImageFix"/>
<feColorMatrix in="SourceAlpha" type="matrix" values="0 0 0 0 0 0 0 0 0 0 0 0 0 0 0 0 0 0 127 0" result="hardAlpha"/>
<feOffset dy="10"/>
<feGaussianBlur stdDeviation="10"/>
<feComposite in2="hardAlpha" operator="out"/>
<feColorMatrix type="matrix" values="0 0 0 0 0.27451 0 0 0 0 0.639216 0 0 0 0 0.345098 0 0 0 0.3 0"/>
<feBlend mode="normal" in2="BackgroundImageFix" result="effect1_dropShadow_50138_302"/>
<feBlend mode="normal" in="SourceGraphic" in2="effect1_dropShadow_50138_302" result="shape"/>
</filter>
<linearGradient id="paint0_linear_50138_302" x1="11" y1="-3" x2="65" y2="55" gradientUnits="userSpaceOnUse">
<stop stop-color="#46A358" stop-opacity="0.45"/>
<stop offset="1" stop-color="#46A358"/>
</linearGradient>
</defs>
</svg>
